PathFileType	4	(X/Y/Z)	C:\Users\adpatrick\OneDrive - nih.no\Desktop\WebApp1080sync\WebAppv0.1\fp22_m505_left 2_Sports2D\fp22_m505_left 2_Sports2D_m_person00.trc
DataRate	CameraRate	NumFrames	NumMarkers	Units	OrigDataRate	OrigDataStartFrame	OrigNumFrames
60	60	7	22	m	60	651	869
Frame#	Time	Hip			RHip			RKnee			RAnkle			RBigToe			RSmallToe			RHeel			LHip			LKnee			LAnkle			LBigToe			LSmallToe			LHeel			Neck			Head			Nose			RShoulder			RElbow			RWrist			LShoulder			LElbow			LWrist		
		X1	Y1	Z1	X2	Y2	Z2	X3	Y3	Z3	X4	Y4	Z4	X5	Y5	Z5	X6	Y6	Z6	X7	Y7	Z7	X8	Y8	Z8	X9	Y9	Z9	X10	Y10	Z10	X11	Y11	Z11	X12	Y12	Z12	X13	Y13	Z13	X14	Y14	Z14	X15	Y15	Z15	X16	Y16	Z16	X17	Y17	Z17	X18	Y18	Z18	X19	Y19	Z19	X20	Y20	Z20	X21	Y21	Z21	X22	Y22	Z22
651	10.85	0.9653531858358934	0.7165488214358985	0.0301	1.0118741608929052	0.7362675678733096	0.0301	0.9205490874773875	0.24540382948916353	0.0179	1.4701412819522774	0.0398989561460094	0.023	0.9768683341654335	-0.12164097100968732	0.2179	1.5054973370128437	-0.08789155820132606	0.1804	1.5439928446202067	0.03885454297004829	-0.0119	0.9318357559400247	0.7329372139279876	-0.0301	0.6225268604816402	0.31472580709337894	-0.0179	1.0443770125212535	-0.09056577668195188	0.023	0.46035479238634297	-0.1740876999909951	0.2179	0.5593626446218438	-0.13976147225234076	0.1804	1.1352025597677797	-0.11315110251719843	-0.0119	0.8902603666229245	1.3935466889639572	-0.0008	0.8078837111005224	1.7070652082159488	0.0655	0.7454746900010933	1.5328898643206657	0.1076	0.9784915718504263	1.33173748539686	-0.01275	0.9327772162650636	1.0241723911441387	0.0119	0.6741603426596954	0.9770869249235579	0.0002	0.8766129880008237	1.3275912135243761	0.01275	0.9970559591673246	1.0737817172361714	-0.0119	0.8930620715186197	0.743337575225489	-0.0002
652	10.866666666666667	0.8684764163275123	0.7106845699328961	0.0301	0.9261119320684669	0.7322434151790512	0.0301	0.8532189792761373	0.2177332421926165	0.0179	1.4198403552682866	0.10026997963014825	0.023	1.0875352423846392	-0.058834459256130685	0.2179	1.4936417592012308	-0.03364673120122808	0.1804	1.489085624000985	0.12417886969925751	-0.0119	0.8139863048202242	0.7287910444989861	-0.0301	0.48130941640701147	0.30848960203093034	-0.0179	0.726608539580574	-0.12015649411856211	0.023	0.26699250406641095	-0.1663451644898241	0.2179	0.39481642192224126	-0.1101553963503549	0.1804	0.8083871380542006	-0.10659279180239446	-0.0119	0.8010032419077229	1.3861890293730386	-0.0008	0.7141263641235828	1.6927831350778941	0.0655	0.6512624333989686	1.5247925504880429	0.1076	0.8891754898110509	1.323058690390244	-0.01275	0.8875623585786973	1.0096019798002258	0.0119	0.6127836814208472	0.9168419325419859	0.0002	0.7779338680351384	1.3190212690909875	0.01275	0.888914613764378	1.0431124660793296	-0.0119	0.759712668355814	0.7172449762060068	-0.0002
653	10.883333333333333	0.7741501741557473	0.7009177771197266	0.0301	0.8462643815855707	0.721428649458612	0.0301	0.8001268723081356	0.18784060462364408	0.0179	1.3545367389944123	0.15097238926985876	0.023	1.2090892322779083	-0.005955847403205005	0.2179	1.4625340039497963	0.009547788210554816	0.1804	1.4199642284103051	0.19479071041056814	-0.0119	0.6966136827344137	0.7177237965055797	-0.0301	0.3421904005718152	0.29644891656273675	-0.0179	0.4198881197363769	-0.1517371293312499	0.023	0.13219790826121597	-0.16927853668027854	0.2179	0.2881506483535333	-0.08846284777955696	0.1804	0.49319329139579804	-0.08279040491408944	-0.0119	0.7108953168691715	1.3747125666348206	-0.0008	0.6211369316645147	1.678467511867022	0.0655	0.5564673801340339	1.5139279493947264	0.1076	0.8045465743835515	1.308657856536946	-0.01275	0.8471179804331792	0.9877861654180642	0.0119	0.5607779447403943	0.8386132257540313	0.0002	0.6725248200809273	1.3048183355630503	0.01275	0.7691288115860598	1.006979211316703	-0.0119	0.6139362619887201	0.6847874267290324	-0.0002
654	10.9	0.6795712578286212	0.6875002960392553	0.0301	0.7652700239037358	0.7033435809366209	0.0301	0.7268452743191712	0.16342934939595913	0.0179	1.2550958205661127	0.1817056455034238	0.023	1.2609101322378096	0.026166477897246493	0.2179	1.384366716034798	0.03569469711761609	0.1804	1.3191645066898994	0.23653832683003717	-0.0119	0.5832402749345932	0.6995979990432006	-0.0301	0.2187331573515214	0.2780288399521394	-0.0179	0.1958057464382806	-0.1739201358643531	0.023	0.08284062136097564	-0.1760504779105253	0.2179	0.2501524672365328	-0.07510494544641773	0.1804	0.263924208508323	-0.034874113435023286	-0.0119	0.6183793486565894	1.358953438426403	-0.0008	0.5283810963267844	1.6649818011108417	0.0655	0.46076064363519864	1.5002066259660687	0.1076	0.7220799768706253	1.2890494078404955	-0.01275	0.7996200720443879	0.9618925803058542	0.0119	0.5152325259610862	0.7631140984389795	0.0002	0.5617332158235487	1.2848948791365333	0.01275	0.6385594206721343	0.9684755127567466	-0.0119	0.46090529452156215	0.650917230082089	-0.0002
655	10.916666666666666	0.5832301078490636	0.6718111276760814	0.0301	0.6798991085932565	0.6803949832852217	0.0301	0.6208340010956315	0.15009433514183737	0.0179	1.1196434972194205	0.18743978349385057	0.023	1.2142681709212606	0.03190963924369094	0.2179	1.2544589159706838	0.040629567642205364	0.1804	1.1858095871561238	0.24400306838889477	-0.0119	0.4753656833833945	0.6769712093326201	-0.0301	0.11597611885972553	0.2571329714495931	-0.0179	0.07884392528318014	-0.17834637753491894	0.023	0.11278749049920092	-0.17648568451867558	0.2179	0.2606927481286397	-0.06967593863005649	0.1804	0.14514105234933317	0.027444290736684914	-0.0119	0.5226109175385966	1.3397987612085147	-0.0008	0.43456124485496406	1.6520972448576552	0.0655	0.3639564744696241	1.4838992422084312	0.1076	0.6399830649518902	1.2653726255630977	-0.01275	0.7412616264214602	0.9349293698292198	0.0119	0.47566317771608907	0.7063638017749316	0.0002	0.44644524292990373	1.2600594408495422	0.01275	0.4994431820869868	0.930283240676162	-0.0119	0.3092024957329818	0.6225692585091152	-0.0002
656	10.933333333333334	0.4853880825249794	0.6561413550724197	0.0301	0.5900432125787357	0.6565078079953157	0.0301	0.4878438740991811	0.15104407718446441	0.0179	0.9541118199257319	0.1682019984227788	0.023	1.0779046662429506	0.012805499178259443	0.2179	1.0790368925291431	0.023607079884628315	0.1804	1.0247222573167363	0.2191130531139268	-0.0119	0.3737821869508945	0.653772893417161	-0.0301	0.035239662815687654	0.23882567771108473	-0.0179	0.056384230265320225	-0.16223285599754203	0.023	0.19042755517734322	-0.1662997920649176	0.2179	0.2893041635975653	-0.07214266348788732	0.1804	0.12390814226697804	0.08254236551185064	-0.0119	0.42390094741680834	1.3191131618139174	-0.0008	0.3390214130266565	1.6384327212352003	0.0655	0.26687404001310916	1.4656447899148937	0.1076	0.5575313788685484	1.2394905559917888	-0.01275	0.6732993812423603	0.9088400951985489	0.0119	0.4390382640466052	0.6742602751882398	0.0002	0.3285996712422797	1.2324637998123804	0.01275	0.35709847242620174	0.8946343733606862	-0.0119	0.1722354285459754	0.6081200541482918	-0.0002
657	10.95	0.38857349858080237	0.6431357508003196	0.0301	0.49803146201930193	0.6353164587673222	0.0301	0.34308907214563444	0.16707538373323857	0.0179	0.7679604494925327	0.12829497292717074	0.023	0.8768131532192989	-0.023733528714788562	0.2179	0.8696613687665079	-0.011494295542959793	0.1804	0.8424762160347756	0.1683560270931884	-0.0119	0.2797219702271695	0.6336279835168227	-0.0301	-0.0241305251832363	0.227742087764679	-0.0179	0.0934894956052434	-0.13012066762607677	0.023	0.26807772812821057	-0.1517416819822274	0.2179	0.307160204015335	-0.08276920418438594	0.1804	0.16503731838309868	0.10865801684600361	-0.0119	0.32460566970678223	1.2994735272766706	-0.0008	0.24376418557056465	1.622517606864443	0.0655	0.17303434682062446	1.4469510662361602	0.1076	0.47532568052826196	1.2139415677302439	-0.01275	0.5990489530622256	0.8849009391803101	0.0119	0.39887715434275345	0.6655058355307591	0.0002	0.21316483012753243	1.205585346395768	0.01275	0.22232680317358225	0.8641156607635144	-0.0119	0.06832179601423219	0.6158079893034708	-0.0002
